HIERARCHY
ROOT Hips
{
	OFFSET 0.000000 0.000000 0.000000
	CHANNELS 6 Xposition Yposition Zposition Zrotation Yrotation Xrotation 
	JOINT LHipJoint
	{
		OFFSET 0.000000 0.000000 0.000000
		CHANNELS 3 Zrotation Yrotation Xrotation
		JOINT LeftUpLeg
		{
			OFFSET 1.363060 -1.794630 0.839290
			CHANNELS 3 Zrotation Yrotation Xrotation
			JOINT LeftLeg
			{
				OFFSET 2.448110 -6.726130 0.000000
				CHANNELS 3 Zrotation Yrotation Xrotation
				JOINT LeftFoot
				{
					OFFSET 2.562200 -7.039590 0.000000
					CHANNELS 3 Zrotation Yrotation Xrotation
					JOINT LeftToeBase
					{
						OFFSET 0.157640 -0.433110 2.322550
						CHANNELS 3 Zrotation Yrotation Xrotation
						End Site
						{
							OFFSET 0.000000 0.000000 0.000000
						}
					}
				}
			}
		}
	}
	JOINT RHipJoint
	{
		OFFSET 0.000000 0.000000 0.000000
		CHANNELS 3 Zrotation Yrotation Xrotation
		JOINT RightUpLeg
		{
			OFFSET -1.305520 -1.794630 0.839290
			CHANNELS 3 Zrotation Yrotation Xrotation
			JOINT RightLeg
			{
				OFFSET -2.542530 -6.985550 0.000000
				CHANNELS 3 Zrotation Yrotation Xrotation
				JOINT RightFoot
				{
					OFFSET -2.568260 -7.056230 0.000000
					CHANNELS 3 Zrotation Yrotation Xrotation
					JOINT RightToeBase
					{
						OFFSET -0.164730 -0.452590 2.363150
						CHANNELS 3 Zrotation Yrotation Xrotation
						End Site
						{
							OFFSET 0.000000 0.000000 0.000000
						}
					}
				}
			}
		}
	}
	JOINT LowerBack
	{
		OFFSET 0.000000 0.000000 0.000000
		CHANNELS 3 Zrotation Yrotation Xrotation
		JOINT Spine
		{
			OFFSET 0.028270 2.035590 -0.193380
			CHANNELS 3 Zrotation Yrotation Xrotation
			JOINT Spine1
			{
				OFFSET 0.056720 2.048850 -0.042750
				CHANNELS 3 Zrotation Yrotation Xrotation
				JOINT Neck
				{
					OFFSET 0.000000 0.000000 0.000000
					CHANNELS 3 Zrotation Yrotation Xrotation
					JOINT Neck1
					{
						OFFSET -0.054170 1.746240 0.172020
						CHANNELS 3 Zrotation Yrotation Xrotation
						JOINT Head
						{
							OFFSET 0.104070 1.761360 -0.123970
							CHANNELS 3 Zrotation Yrotation Xrotation
							End Site
							{
								OFFSET 0.000000 0.000000 0.000000
							}
						}
					}
				}
				JOINT LeftShoulder
				{
					OFFSET 0.000000 0.000000 0.000000
					CHANNELS 3 Zrotation Yrotation Xrotation
					JOINT LeftArm
					{
						OFFSET 3.362410 1.200890 -0.311210
						CHANNELS 3 Zrotation Yrotation Xrotation
						JOINT LeftForeArm
						{
							OFFSET 4.983000 -0.000000 -0.000000
							CHANNELS 3 Zrotation Yrotation Xrotation
							JOINT LeftHand
							{
								OFFSET 3.483560 -0.000000 -0.000000
								CHANNELS 3 Zrotation Yrotation Xrotation
								JOINT LeftFingerBase
								{
									OFFSET 0.000000 0.000000 0.000000
									CHANNELS 3 Zrotation Yrotation Xrotation
									JOINT LeftHandIndex1
									{
										OFFSET 0.715260 -0.000000 -0.000000
										CHANNELS 3 Zrotation Yrotation Xrotation
										End Site
										{
											OFFSET 0.000000 0.000000 0.000000
										}
									}
								}
								JOINT LThumb
								{
									OFFSET 0.000000 0.000000 0.000000
									CHANNELS 3 Zrotation Yrotation Xrotation
									End Site
									{
										OFFSET 0.000000 0.000000 0.000000
									}
								}
							}
						}
					}
				}
				JOINT RightShoulder
				{
					OFFSET 0.000000 0.000000 0.000000
					CHANNELS 3 Zrotation Yrotation Xrotation
					JOINT RightArm
					{
						OFFSET -3.136600 1.374050 -0.404650
						CHANNELS 3 Zrotation Yrotation Xrotation
						JOINT RightForeArm
						{
							OFFSET -5.241900 -0.000000 -0.000000
							CHANNELS 3 Zrotation Yrotation Xrotation
							JOINT RightHand
							{
								OFFSET -3.444170 -0.000000 -0.000000
								CHANNELS 3 Zrotation Yrotation Xrotation
								JOINT RightFingerBase
								{
									OFFSET 0.000000 0.000000 0.000000
									CHANNELS 3 Zrotation Yrotation Xrotation
									JOINT RightHandIndex1
									{
										OFFSET -0.622530 -0.000000 -0.000000
										CHANNELS 3 Zrotation Yrotation Xrotation
										End Site
										{
											OFFSET 0.000000 0.000000 0.000000
										}
									}
								}
								JOINT RThumb
								{
									OFFSET 0.000000 0.000000 0.000000
									CHANNELS 3 Zrotation Yrotation Xrotation
									End Site
									{
										OFFSET 0.000000 0.000000 0.000000
									}
								}
							}
						}
					}
				}
			}
		}
	}
}
MOTION
Frames: 7
Frame Time: 0.008333
-33.377130 17.325309 1.201603 70.823711 85.446675 67.986109 -1.371696 -4.298828 -1.726013 -22.253652 -0.228432 -1.906260 0.598955 11.635487 28.426753 -2.471193 12.346332 -15.259474 0.018500 0.878600 2.414800 -3.811441 2.880993 -4.616898 15.488556 -5.328756 -6.059066 -2.996219 -13.496508 35.963992 -0.862122 -1.519825 -19.137698 -0.037400 -1.248300 3.432300 -5.224790 1.647016 5.729533 0.304957 2.175478 -0.406307 5.438934 0.542773 7.967601 -7.802516 -0.087342 -13.349188 6.066067 2.834713 15.963741 2.436800 1.232600 14.925200 -9.128307 -1.889685 -1.202282 -75.277047 -0.680859 10.697638 4.673766 -18.046071 -1.831148 -0.803628 0.827777 25.557595 23.966062 -10.648611 -5.091500 -7.125000 0.000000 0.000000 -1.439300 17.882900 0.928100 12.048234 3.294985 -0.982300 61.073823 -3.950713 22.492795 -13.911684 27.353853 -5.301234 1.043057 2.030570 -16.542796 -9.253801 -28.051400 5.387900 7.125000 0.000000 0.000000 22.723000 -58.531300 -7.775200 
-33.421682 17.345325 1.190411 56.850145 87.313674 54.326275 -1.523496 -4.329073 -1.715399 -19.856791 -0.816235 -2.654868 0.846863 11.904212 29.634432 -2.301475 11.822351 -15.784004 0.036900 1.239100 3.406900 -4.063412 2.789524 -4.529218 17.712309 -6.336418 -7.282823 -2.940023 -13.633852 35.946068 -0.774721 -1.311984 -17.905433 -0.026000 -1.041200 2.862100 -3.270272 1.502965 6.193422 0.450345 1.907660 -0.558939 4.787103 0.537223 7.252044 -7.322633 0.276863 -13.050236 5.908446 3.137984 15.787332 2.282000 1.392500 14.772100 -9.058241 -2.012073 -1.239179 -74.766687 -0.213644 13.889253 5.413255 -19.190931 -2.044462 -0.578503 0.557256 22.696100 18.135165 -10.404802 -3.621800 -7.125000 0.000000 0.000000 -5.774400 18.756900 3.629400 12.024094 3.301824 -1.032112 61.233870 -4.685275 24.326341 -14.805976 28.362228 -5.651561 1.002639 2.023043 -16.910706 -8.653538 -27.835252 5.035800 7.125000 0.000000 0.000000 23.206500 -58.200100 -7.765200 
-33.468494 17.358561 1.178143 23.901208 88.218778 21.659187 -1.980951 -4.248610 -1.609852 -17.646100 -1.375763 -3.559316 1.104566 12.260791 30.903967 -2.141389 11.341349 -16.184023 0.045800 1.381600 3.799500 -4.626492 2.806562 -4.574640 19.685396 -7.235093 -8.387625 -2.963828 -13.733532 36.132824 -0.741596 -0.809358 -16.617865 -0.009300 -0.624300 1.715400 -1.760801 1.398905 6.602228 0.564649 1.729533 -0.672232 4.099853 0.589045 6.721441 -6.869805 0.605254 -12.900953 5.722468 3.418265 15.644655 2.122200 1.533500 14.674700 -8.994056 -2.094412 -1.265047 -74.352488 -0.008358 16.549615 6.111004 -20.197982 -2.265869 -0.330186 0.300892 20.841209 12.489379 -9.918117 -2.294000 -7.125000 0.000000 0.000000 -10.010600 19.733200 6.136300 12.000125 3.341800 -1.049650 61.545406 -4.868409 25.210639 -15.291398 28.869714 -5.821270 1.000543 1.977552 -16.450520 -8.167970 -27.357531 4.704500 7.125000 0.000000 0.000000 23.357000 -57.634900 -7.496800 
-33.508848 17.372121 1.168781 -29.611966 87.143262 -31.575018 -1.624009 -3.520729 -1.402950 -15.543605 -1.765076 -4.528590 1.302933 12.602715 31.893853 -2.013921 10.909479 -16.313736 0.033100 1.174400 3.228800 -4.407622 3.496421 -4.772281 21.444795 -8.185183 -9.487723 -3.064048 -13.818154 36.525713 -0.713138 -0.172584 -14.974312 -0.000200 -0.082900 0.227700 0.397785 1.480420 6.863349 0.646685 1.720456 -0.754243 3.497464 0.818649 6.370226 -6.627366 0.910806 -12.749610 5.602863 3.735803 15.522460 2.066400 1.665700 14.557900 -8.957206 -2.041990 -1.301482 -73.963866 0.110376 17.511097 6.639004 -20.912633 -2.482405 -0.045400 0.069391 20.759245 6.717818 -9.557561 -1.137300 -7.125000 0.000000 0.000000 -14.346400 20.435700 8.707600 11.976286 3.480830 -1.013682 61.866453 -4.730190 25.383920 -15.478435 29.048968 -5.880463 0.997078 1.942342 -15.633819 -7.443853 -27.096067 4.294400 7.125000 0.000000 0.000000 23.929800 -57.236500 -7.461100 
-33.552647 17.397410 1.162432 -70.437357 84.365036 -71.398923 -1.123885 -3.410703 -1.525886 -11.491398 -1.910512 -6.043065 1.613143 12.575944 32.673861 -1.886037 10.160632 -15.134553 0.011800 0.700400 1.924700 -4.165832 3.456056 -4.552559 25.149672 -8.896641 -11.993915 -3.068075 -14.244430 37.046114 -0.594225 -0.210497 -13.414302 -0.008800 0.604300 -1.660700 4.407449 1.117806 6.434684 0.947945 1.172728 -0.934126 2.761005 0.658171 6.005058 -6.407983 1.277075 -12.486239 5.486803 4.147056 15.420716 2.028200 1.834600 14.406700 -8.810445 -2.125012 -1.345234 -74.034670 0.761322 24.970726 7.805275 -22.560363 -2.723965 -0.234530 -0.345473 4.623925 5.870503 -4.183048 -0.406000 -7.125000 0.000000 0.000000 -15.444200 26.074400 7.337800 11.977678 3.440064 -1.050984 62.063044 -4.721519 25.667486 -15.687388 29.281812 -5.968856 1.007367 1.924801 -14.905443 -7.047511 -27.097830 4.094600 7.125000 0.000000 0.000000 24.344900 -57.155900 -7.552900 
-33.578043 17.408924 1.149195 -65.977092 83.790252 -66.992180 -1.142647 -3.377578 -1.515891 -11.111809 -1.831115 -6.253393 1.708749 12.688853 33.080712 -1.964336 10.452911 -15.464376 0.007400 0.553900 1.522000 -4.218098 3.477558 -4.546383 25.164460 -9.365082 -13.062513 -3.301408 -14.510438 38.027827 -0.598458 0.371486 -12.142242 -0.118100 2.215100 -6.100600 4.653589 1.144315 6.876380 0.947947 1.251248 -0.984926 2.578324 0.736114 5.539892 -6.214520 1.653036 -12.051260 5.346090 4.554495 15.291152 1.920400 2.017900 14.191700 -8.751837 -2.200013 -1.332056 -74.066850 0.681041 27.950407 8.288944 -23.130646 -2.773168 -0.591950 -0.412266 -2.918386 11.330643 -2.497702 -0.445100 -7.125000 0.000000 0.000000 -11.241400 27.767800 4.795200 11.950435 3.447724 -1.059006 62.304281 -4.848101 25.946444 -15.939429 29.517578 -6.053067 1.021420 1.886153 -14.135096 -6.861520 -26.828634 3.959100 7.125000 0.000000 0.000000 24.340300 -56.854600 -7.370800 
-33.580518 17.422698 1.134345 -61.011654 83.431025 -62.148277 -1.178321 -3.352402 -1.497221 -11.098093 -1.743723 -6.159575 1.742352 12.747253 33.251103 -2.058450 10.808925 -15.813476 0.012300 0.715100 1.965300 -4.256910 3.500050 -4.562080 24.736882 -9.890860 -13.925956 -3.572451 -14.768883 39.095636 -0.687092 1.350478 -11.437122 -0.548700 4.745600 -13.184300 4.744613 1.251259 7.100373 0.906487 1.417235 -0.990230 2.314641 0.851543 5.331246 -5.982317 1.910472 -11.722836 5.151918 4.785044 15.167547 1.760500 2.128400 13.997200 -8.744179 -2.258387 -1.286293 -73.946886 0.147341 27.722144 8.159112 -22.894969 -2.717724 -0.599916 -0.381431 -2.898468 11.485048 -2.825634 -0.528000 -7.125000 0.000000 0.000000 -11.084700 27.408300 4.821800 11.932986 3.437223 -1.068218 62.574843 -4.965128 26.043950 -16.132909 29.710104 -6.111407 0.996990 1.849044 -13.725384 -6.241187 -26.306728 3.576900 7.125000 0.000000 0.000000 24.620900 -56.239200 -7.088700 
